<svg version="1.1" xmlns="http://www.w3.org/2000/svg" xmlns:xlink="http://www.w3.org/1999/xlink" width="334" height="56" viewBox="0 0 334 56">
<path id="Ellipse-1-copy-2" d="M28.031,55.813 C12.895,55.813 0.625,43.514 0.625,28.344 C0.625,13.173 12.895,0.875 28.031,0.875 C43.167,0.875 55.438,13.173 55.438,28.344 C55.438,43.514 43.167,55.813 28.031,55.813 zM28.043,15.842 C21.156,15.842 15.572,21.433 15.572,28.331 C15.572,35.229 21.156,40.821 28.043,40.821 C34.931,40.821 40.514,35.229 40.514,28.331 C40.514,21.433 34.931,15.842 28.043,15.842 z" fill="#E4B4B4" />
<path id="Rounded-Rectangl" d="M53.022,55.813 C53.022,55.813 41.947,55.813 41.947,55.813 C40.613,55.813 39.531,54.731 39.531,53.397 C39.531,53.397 39.531,33.198 39.531,33.198 C40.164,31.703 40.514,30.058 40.514,28.331 C40.514,26.604 40.164,24.960 39.531,23.464 C39.531,23.464 39.531,3.291 39.531,3.291 C39.531,1.956 40.613,0.875 41.947,0.875 C41.947,0.875 53.022,0.875 53.022,0.875 C54.356,0.875 55.437,1.956 55.437,3.291 C55.437,3.291 55.437,53.397 55.437,53.397 C55.437,54.731 54.356,55.813 53.022,55.813 z" fill="#5EA3A6" />
<path id="Ellipse-1-copy-3" d="M39.531,53.252 C39.531,53.252 39.531,33.198 39.531,33.198 C40.164,31.703 40.514,30.058 40.514,28.331 C40.514,26.604 40.164,24.960 39.531,23.464 C39.531,23.464 39.531,3.435 39.531,3.435 C48.915,7.796 55.438,17.295 55.438,28.344 C55.438,39.392 48.915,48.892 39.531,53.252 z" fill="#3A718C" />
<path id="avander" d="M326.485,26.208 C324.353,27.585 323.287,29.836 323.287,32.957 C323.287,32.957 323.287,47.213 323.287,47.213 L311.871,47.213 L311.871,12.778 L323.287,12.778 C323.287,12.778 323.287,19.183 323.287,19.183 C323.928,16.934 325.212,15.189 327.138,13.949 C329.063,12.709 331.218,12.090 333.602,12.090 C333.602,12.090 333.602,24.762 333.602,24.762 C330.989,24.349 328.616,24.831 326.485,26.208 zM282.783,34.197 C283.928,36.998 286.496,38.398 290.485,38.398 C292.961,38.398 295.046,37.595 296.743,35.988 C296.743,35.988 304.995,41.773 304.995,41.773 C301.602,46.043 296.674,48.178 290.210,48.178 C284.387,48.178 279.723,46.468 276.216,43.047 C272.709,39.627 270.955,35.299 270.955,30.065 C270.955,24.877 272.674,20.538 276.113,17.048 C279.551,13.560 283.928,11.814 289.247,11.814 C294.381,11.814 298.622,13.536 301.969,16.979 C305.315,20.423 306.989,24.739 306.989,29.927 C306.989,31.442 306.828,32.866 306.508,34.197 C306.508,34.197 282.783,34.197 282.783,34.197 zM289.385,21.456 C285.854,21.456 283.608,23.064 282.646,26.277 C282.646,26.277 295.849,26.277 295.849,26.277 C294.931,23.064 292.777,21.456 289.385,21.456 zM254.657,44.045 C252.319,46.800 249.064,48.178 244.893,48.178 C240.308,48.178 236.469,46.445 233.374,42.978 C230.279,39.512 228.732,35.185 228.732,29.996 C228.732,24.808 230.279,20.481 233.374,17.014 C236.469,13.548 240.308,11.814 244.893,11.814 C249.064,11.814 252.319,13.192 254.657,15.946 C254.657,15.946 254.657,-0.996 254.657,-0.996 L266.073,-0.996 L266.073,47.213 L254.657,47.213 C254.657,47.213 254.657,44.045 254.657,44.045 zM252.663,24.555 C251.333,23.178 249.591,22.489 247.437,22.489 C245.281,22.489 243.540,23.178 242.211,24.555 C240.880,25.933 240.216,27.747 240.216,29.996 C240.216,32.246 240.880,34.059 242.211,35.437 C243.540,36.814 245.281,37.503 247.437,37.503 C249.591,37.503 251.333,36.814 252.663,35.437 C253.992,34.059 254.657,32.246 254.657,29.996 C254.657,27.747 253.992,25.933 252.663,24.555 zM212.847,28.068 C212.847,26.277 212.376,24.923 211.437,24.004 C210.497,23.086 209.247,22.627 207.689,22.627 C205.901,22.627 204.514,23.167 203.529,24.245 C202.542,25.325 202.050,26.874 202.050,28.894 C202.050,28.894 202.050,47.213 202.050,47.213 L190.635,47.213 L190.635,12.778 L202.050,12.778 C202.050,12.778 202.050,16.222 202.050,16.222 C204.113,13.284 207.299,11.814 211.609,11.814 C215.322,11.814 218.359,13.088 220.721,15.637 C223.081,18.185 224.262,21.847 224.262,26.621 C224.262,26.621 224.262,47.213 224.262,47.213 L212.847,47.213 C212.847,47.213 212.847,28.068 212.847,28.068 zM172.619,44.045 C170.281,46.800 167.025,48.178 162.854,48.178 C158.269,48.178 154.430,46.445 151.335,42.978 C148.241,39.512 146.693,35.185 146.693,29.996 C146.693,24.808 148.241,20.481 151.335,17.014 C154.430,13.548 158.269,11.814 162.854,11.814 C167.025,11.814 170.281,13.192 172.619,15.946 C172.619,15.946 172.619,12.778 172.619,12.778 L184.034,12.778 L184.034,47.213 L172.619,47.213 C172.619,47.213 172.619,44.045 172.619,44.045 zM170.624,24.555 C169.294,23.178 167.552,22.489 165.398,22.489 C163.243,22.489 161.501,23.178 160.172,24.555 C158.842,25.933 158.178,27.747 158.178,29.996 C158.178,32.246 158.842,34.059 160.172,35.437 C161.501,36.814 163.243,37.503 165.398,37.503 C167.552,37.503 169.294,36.814 170.624,35.437 C171.954,34.059 172.619,32.246 172.619,29.996 C172.619,27.747 171.954,25.933 170.624,24.555 zM121.388,47.213 L108.528,12.778 L121.182,12.778 L127.577,32.544 L133.972,12.778 L146.625,12.778 L133.766,47.213 L121.388,47.213 zM93.813,44.045 C91.475,46.800 88.219,48.178 84.048,48.178 C79.463,48.178 75.624,46.445 72.529,42.978 C69.435,39.512 67.888,35.185 67.888,29.996 C67.888,24.808 69.435,20.481 72.529,17.014 C75.624,13.548 79.463,11.814 84.048,11.814 C88.219,11.814 91.475,13.192 93.813,15.946 C93.813,15.946 93.813,12.778 93.813,12.778 L105.228,12.778 L105.228,47.213 L93.813,47.213 C93.813,47.213 93.813,44.045 93.813,44.045 zM91.819,24.555 C90.488,23.178 88.747,22.489 86.592,22.489 C84.437,22.489 82.695,23.178 81.366,24.555 C80.036,25.933 79.372,27.747 79.372,29.996 C79.372,32.246 80.036,34.059 81.366,35.437 C82.695,36.814 84.437,37.503 86.592,37.503 C88.747,37.503 90.488,36.814 91.819,35.437 C93.148,34.059 93.813,32.246 93.813,29.996 C93.813,27.747 93.148,25.933 91.819,24.555 z" fill="#5EA3A6" />
</svg>
